<svg width="350" height="109" viewBox="0 0 350 109" fill="none" xmlns="http://www.w3.org/2000/svg">
	<path d="M105.658 55.532C105.658 45.5175 113.683 37.5779 123.82 37.5779C128.511 37.5779 132.591 39.1627 135.993 41.9956L130.487 48.4882C128.926 47.0411 126.746 46.1377 124.023 46.1377C118.721 46.1377 114.912 50.073 114.912 55.5243C114.912 60.9756 118.517 64.911 124.295 64.911C127.153 64.911 129.937 63.8085 131.709 62.0782L136.536 68.9842C133.27 71.817 128.715 73.4708 123.82 73.4708C113.683 73.4708 105.658 65.5312 105.658 55.5167V55.532Z" fill="#1D1D1B" />
	<path d="M139.123 55.532C139.123 45.5175 147.148 37.5779 157.285 37.5779C167.422 37.5779 175.515 45.5175 175.515 55.532C175.515 65.5465 167.49 73.4861 157.285 73.4861C147.08 73.4861 139.123 65.5465 139.123 55.532ZM166.193 55.532C166.193 50.1496 162.384 46.1453 157.285 46.1453C152.186 46.1453 148.378 50.1496 148.378 55.532C148.378 60.9144 152.186 64.9187 157.285 64.9187C162.384 64.9187 166.193 60.9833 166.193 55.532Z" fill="#1D1D1B" />
	<path d="M180.614 27.3643H189.725V72.797H180.614V27.3643Z" fill="#1D1D1B" />
	<path d="M194.831 55.532C194.831 45.5864 202.449 37.5779 212.45 37.5779C221.697 37.5779 228.975 45.5864 228.975 55.3942C228.975 57.0479 228.772 58.7094 228.772 58.7094H204.078C205.164 63.4716 209.041 65.7532 213.536 65.7532C216.802 65.7532 220.204 64.7885 222.715 63.0582L226.117 69.6885C222.308 72.2458 217.888 73.4861 213.468 73.4861C203.535 73.4861 194.831 66.9246 194.831 55.532ZM220.407 52.5613C219.728 48.2125 216.327 45.3108 212.178 45.3108C208.03 45.3108 204.832 48.2125 203.95 52.5613H220.407Z" fill="#1D1D1B" />
	<path d="M234.074 55.532C234.074 45.5175 242.099 37.5779 252.236 37.5779C256.927 37.5779 261.008 39.1627 264.409 41.9956L258.903 48.4882C257.342 47.0411 255.162 46.1377 252.44 46.1377C247.137 46.1377 243.328 50.073 243.328 55.5243C243.328 60.9756 246.934 64.911 252.711 64.911C255.57 64.911 258.36 63.8085 260.125 62.0782L264.952 68.9842C261.686 71.817 257.131 73.4708 252.236 73.4708C242.099 73.4708 234.074 65.5312 234.074 55.5167V55.532Z" fill="#1D1D1B" />
	<path d="M274.222 61.6799V45.7317H269.259V38.2745H274.222V31.6441L283.333 29.5692V38.2668H292.723V45.7241H283.333V61.5344C283.333 64.5051 284.759 65.4698 286.395 65.4698C288.575 65.4698 290.476 64.2294 290.747 64.0227L293.334 70.8598C291.29 72.238 288.304 73.486 284.698 73.486C277.895 73.486 274.222 69.4817 274.222 61.6799Z" fill="#1D1D1B" />
	<path d="M298.448 28.6047C298.448 25.5651 300.899 23.0845 303.818 23.0845C306.737 23.0845 309.256 25.5728 309.256 28.6047C309.256 31.6366 306.805 34.056 303.818 34.056C300.831 34.056 298.448 31.5677 298.448 28.6047Z" fill="#32C380" />
	<path d="M308.442 38.2746H299.33V72.797H308.442V38.2746Z" fill="#1D1D1B" />
	<path d="M313.608 55.532C313.608 45.5175 321.633 37.5779 331.77 37.5779C341.907 37.5779 350 45.5175 350 55.532C350 65.5465 341.975 73.4861 331.77 73.4861C321.565 73.4861 313.608 65.5465 313.608 55.532ZM340.678 55.532C340.678 50.1496 336.869 46.1453 331.77 46.1453C326.671 46.1453 322.863 50.1496 322.863 55.532C322.863 60.9144 326.671 64.9187 331.77 64.9187C336.869 64.9187 340.678 60.9833 340.678 55.532Z" fill="#1D1D1B" />
	<path d="M38.6621 31.9061C42.9009 29.0426 47.9844 27.3736 53.4527 27.3736C58.9209 27.3736 64.0044 29.0426 68.2432 31.9061L87.3254 12.5356C78.1011 4.84862 66.3048 0.239502 53.4527 0.239502C40.6005 0.239502 28.7967 4.84862 19.5724 12.5279L38.6545 31.8984L38.6621 31.9061Z" fill="#32C380" />
	<path d="M68.2433 77.0938C64.0045 79.9573 58.9209 81.6264 53.4527 81.6264C47.1624 81.6264 41.3774 79.4137 36.8143 75.7157L26.7301 81.6264V54.4004C26.7528 48.8879 28.3894 43.7581 31.1952 39.4859L12.113 20.1154C4.5405 29.4714 0 41.4459 0 54.5C0 84.4669 23.9319 108.76 53.4527 108.76C66.3124 108.76 78.1087 104.151 87.3255 96.472L68.2433 77.1015V77.0938Z" fill="#1D1D1B" />
</svg>
