<svg width="183" height="159" viewBox="0 0 183 159" fill="none" xmlns="http://www.w3.org/2000/svg" xmlns:xlink="http://www.w3.org/1999/xlink">
    <path fill-rule="evenodd" clip-rule="evenodd" d="M72.0703 102.398L86.3714 157.227H108.477L130.383 112.78L106.214 78.8231L72.0703 102.398Z" fill="white" stroke="#4E5A95" stroke-width="2" stroke-miterlimit="1.5" stroke-linecap="round" stroke-linejoin="round"></path>
    <path fill-rule="evenodd" clip-rule="evenodd" d="M181.936 93.6541L156.997 157.166H130.216L88.2874 76.451L108.482 42.9382L181.936 93.6541Z" fill="white" stroke="#4E5A95" stroke-width="2" stroke-miterlimit="1.5" stroke-linecap="round" stroke-linejoin="round"></path>
    <path fill-rule="evenodd" clip-rule="evenodd" d="M157.189 157.166L181.976 93.631L129.999 157.166H157.189Z" fill="white" stroke="#4E5A95" stroke-width="2" stroke-miterlimit="1.5" stroke-linecap="round" stroke-linejoin="round"></path>
    <rect y="0.00152588" width="0.199613" height="0.199926" fill="url(#pattern0)"></rect>
    <path fill-rule="evenodd" clip-rule="evenodd" d="M108.409 42.7742L129.997 49.826V79.7523L74.7071 112.748L108.409 42.7742Z" fill="white" stroke="#4E5A95" stroke-width="2" stroke-miterlimit="1.5" stroke-linecap="round" stroke-linejoin="round"></path>
    <path fill-rule="evenodd" clip-rule="evenodd" d="M18.0464 95.4948L28.9943 128.77L19.2657 129.363C19.2657 129.363 17.8274 96.0555 18.0464 95.4948Z" fill="white" stroke="#4E5A95" stroke-width="2" stroke-miterlimit="1.5" stroke-linecap="round" stroke-linejoin="round"></path>
    <path fill-rule="evenodd" clip-rule="evenodd" d="M19.22 129.388L43.8438 126.752L41.1998 152.791L25.684 144.387L19.22 129.388Z" fill="white" stroke="#4E5A95" stroke-width="2" stroke-miterlimit="1.5" stroke-linecap="round" stroke-linejoin="round"></path>
    <path fill-rule="evenodd" clip-rule="evenodd" d="M59.4884 123.325L46.9499 77.7008L41.2415 152.887L59.4884 123.325Z" fill="white" stroke="#4E5A95" stroke-width="2" stroke-miterlimit="1.5" stroke-linecap="round" stroke-linejoin="round"></path>
    <path fill-rule="evenodd" clip-rule="evenodd" d="M108.409 42.9108C108.409 42.9108 92.2344 75.6397 71.3318 122.505C70.7553 123.798 69.9654 129.388 69.9654 129.388C69.9654 137.031 68.3658 142.273 61.6123 142.273C60.0128 142.273 57.7912 141.829 56.014 140.407C60.9903 139.163 60.9014 132.854 60.5459 130.544L58.8831 121.021L47.1008 77.4002L60.4994 57.6383L108.409 42.9108Z" fill="white" stroke="#4E5A95" stroke-width="2" stroke-miterlimit="1.5" stroke-linecap="round" stroke-linejoin="round"></path>
    <path d="M66.7226 99.795C69.7862 99.795 72.2697 97.3115 72.2697 94.2479C72.2697 91.1844 69.7862 88.7009 66.7226 88.7009C63.659 88.7009 61.1755 91.1844 61.1755 94.2479C61.1755 97.3115 63.659 99.795 66.7226 99.795Z" fill="#4E5A95"></path>
</svg>