<?xml version="1.0" encoding="utf-8"?>
<!-- Generator: Adobe Illustrator 23.1.1, SVG Export Plug-In . SVG Version: 6.00 Build 0)  -->
<svg version="1.1" id="Vrstva_1" xmlns="http://www.w3.org/2000/svg" xmlns:xlink="http://www.w3.org/1999/xlink" x="0px" y="0px"
	 viewBox="0 0 224.78 68.53" style="enable-background:new 0 0 224.78 68.53;" xml:space="preserve">
<style type="text/css">
	.st0{fill:#3CB371;}
</style>
<polygon points="67.52,22.41 72.53,16.06 69.64,16.06 65.92,19.58 62.2,16.06 59.3,16.06 64.32,22.41 "/>
<path d="M71.85,32.07H59.4v-5.28h13.07v3.55l3.44-0.61v-2.16c0-3.37-2.08-3.84-4.33-3.84h-11.3c-2.79,0-4.33,1.37-4.33,3.84v3.6
	c0,2.48,1.54,3.84,4.33,3.84h12.47v6.18H59.1v-3.78l-3.44,0.61v2.84c0,1.58,0.75,3.48,4.33,3.48h11.87c3.58,0,4.33-1.88,4.33-3.48
	v-5.33C76.18,33.96,75.43,32.07,71.85,32.07z"/>
<polygon points="104.31,23.75 98.85,23.75 87.85,32.06 87.85,23.75 84.41,23.75 84.41,44.33 87.85,44.33 87.85,35.38 99.98,44.33 
	105.85,44.33 91.13,33.66 "/>
<path d="M126.5,23.75h-12.88c-2.79,0-4.33,1.37-4.33,3.84v13.28c0,1.58,0.75,3.48,4.33,3.48h12.88c3.58,0,4.33-1.88,4.33-3.48v-13.3
	C130.83,24.21,128.75,23.75,126.5,23.75z M127.39,26.79v14.4h-14.65v-14.4H127.39z"/>
<polygon points="142.5,23.75 139.05,23.75 139.05,44.33 155.2,44.33 155.2,41.21 142.5,41.21 "/>
<polygon points="165.28,35.03 174.87,35.03 174.87,32.07 165.28,32.07 165.28,26.79 180.84,26.79 180.84,23.75 161.84,23.75 
	161.84,44.33 180.98,44.33 180.98,41.21 165.28,41.21 "/>
<polygon points="205.86,38.9 191.22,23.9 191.07,23.75 188.34,23.75 188.34,44.33 191.79,44.33 191.79,29.13 206.58,44.33 
	209.3,44.33 209.3,23.75 205.86,23.75 "/>
<polygon points="224.78,16.06 220.74,16.06 216.75,22.41 219.56,22.41 "/>
<rect x="217.81" y="23.75" width="3.44" height="20.58"/>
<path d="M105.7,56.45v9.57h-1.49V54.26h1.21l9.3,9.53v-9.53h1.49v11.76h-1.19L105.7,56.45z"/>
<path d="M119.93,66.02l6.33-11.76h1.13l6.36,11.76h-1.61l-1.57-2.98h-7.59l-1.55,2.98H119.93z M126.79,55.83l-3.21,6.03h6.41
	L126.79,55.83z M128.66,49.64l-2.65,3.22h-0.99l2.03-3.22H128.66z"/>
<path d="M146.72,59.26c1.49,0,2.3,0.54,2.3,1.78v3.2c0,1.25-0.83,1.78-2.3,1.78h-7.13c-1.49,0-2.3-0.54-2.3-1.78v-1.46l1.49-0.26
	v2.22h8.79v-4.31h-7.8c-1.14,0-2.3-0.38-2.3-1.99v-2.16c0-1.63,1.16-1.99,2.3-1.99h6.78c1.49,0,2.3,0.38,2.3,1.99v1.04l-1.49,0.26
	v-2.1h-8.44v3.77H146.72z"/>
<path d="M171.05,60.02c0.99,0.1,1.73,0.66,1.73,1.8v2.42c0,1.12-0.66,1.78-2.3,1.78h-9.36V54.26h9.36c1.62,0,2.2,0.57,2.2,1.99v2.12
	c0,0.97-0.66,1.44-1.62,1.62L171.05,60.02z M171.21,56.04c0-0.38-0.24-0.57-0.84-0.57h-7.78v3.94h7.78c0.61,0,0.84-0.12,0.84-0.57
	L171.21,56.04z M170.56,64.72c0.5,0,0.75-0.15,0.75-0.75v-2.63c0-0.62-0.26-0.76-0.75-0.76h-7.97v4.13L170.56,64.72z"/>
<path d="M176.31,66.02l6.33-11.76h1.12l6.37,11.76h-1.59l-1.57-2.98h-7.59l-1.55,2.98H176.31z M183.18,55.83l-3.22,6.03h6.42
	L183.18,55.83z"/>
<path d="M203.2,54.26h1.49l-5.84,11.76h-1.18l-6.03-11.76h1.6l5.07,10.01L203.2,54.26z"/>
<path d="M211.67,49.64l-2.65,3.22h-0.99l2.03-3.22H211.67z M208.42,54.26h1.49v11.76h-1.49V54.26z"/>
<path d="M13.7,0L13.7,0c-0.84,0-1.65,0.33-2.25,0.93c-0.6,0.6-0.94,1.42-0.94,2.28v48.11c0.01,1.77,1.44,3.21,3.21,3.21
	c7.45,0,19.98,1.57,28.61,10.61V14.79c0.01-0.57-0.15-1.13-0.44-1.62C34.82,1.74,21.2,0.01,13.7,0z"/>
<path class="st0" d="M89.67,51.41v13.91c0,1.77-1.44,3.21-3.21,3.21c-0.24,0-0.48-0.03-0.72-0.08c-7.68-1.75-21.17-3.79-33.97-0.66
	c7.4-7,17.85-8.24,24.18-8.25c4.53,0.04,8.23-3.59,8.28-8.12H89.67z"/>
<path class="st0" d="M5.53,51.32V11.09H3.21C1.44,11.09,0,12.53,0,14.3v51.02c0,1.77,1.43,3.21,3.2,3.21c0.24,0,0.49-0.03,0.73-0.08
	c7.69-1.75,21.17-3.79,33.97-0.66c-7.4-7-17.84-8.24-24.18-8.25C9.19,59.52,5.53,55.85,5.53,51.32z"/>
</svg>
